<?xml version="1.0" encoding="UTF-8" standalone="no"?>
<!-- Created with Inkscape (http://www.inkscape.org/) -->

<svg
   xmlns:dc="http://purl.org/dc/elements/1.1/"
   xmlns:cc="http://creativecommons.org/ns#"
   xmlns:rdf="http://www.w3.org/1999/02/22-rdf-syntax-ns#"
   xmlns:svg="http://www.w3.org/2000/svg"
   xmlns="http://www.w3.org/2000/svg"
   xmlns:xlink="http://www.w3.org/1999/xlink"
   xmlns:sodipodi="http://sodipodi.sourceforge.net/DTD/sodipodi-0.dtd"
   xmlns:inkscape="http://www.inkscape.org/namespaces/inkscape"
   width="141.30579"
   height="133.43474"
   id="svg2"
   sodipodi:version="0.32"
   inkscape:version="0.92.2 2405546, 2018-03-11"
   version="1.0"
   sodipodi:docname="jinja.svg"
   inkscape:export-filename="/Users/mitsuhiko/Development/jinja2/docs/_static/jinjabanner.png"
   inkscape:export-xdpi="60"
   inkscape:export-ydpi="60"
   inkscape:output_extension="org.inkscape.output.svg.inkscape">
  <defs
     id="defs4">
    <linearGradient
       id="linearGradient6558">
      <stop
         style="stop-color:#575757;stop-opacity:1;"
         offset="0"
         id="stop6560" />
      <stop
         style="stop-color:#2f2f2f;stop-opacity:1;"
         offset="1"
         id="stop6562" />
    </linearGradient>
    <radialGradient
       inkscape:collect="always"
       xlink:href="#linearGradient6558"
       id="radialGradient6564"
       cx="61.297768"
       cy="60.910988"
       fx="61.297768"
       fy="60.910988"
       r="44.688255"
       gradientTransform="matrix(1.5592076,0,0,1.4736134,-8.932899,-52.753943)"
       gradientUnits="userSpaceOnUse" />
    <radialGradient
       inkscape:collect="always"
       xlink:href="#linearGradient6558"
       id="radialGradient6580"
       gradientUnits="userSpaceOnUse"
       gradientTransform="matrix(1,0,0,0.945104,0.355158,3.334402)"
       cx="61.297768"
       cy="60.910988"
       fx="61.297768"
       fy="60.910988"
       r="44.688255" />
    <linearGradient
       inkscape:collect="always"
       xlink:href="#linearGradient6558"
       id="linearGradient4173"
       x1="255.15521"
       y1="32.347946"
       x2="279.8912"
       y2="32.347946"
       gradientUnits="userSpaceOnUse"
       gradientTransform="matrix(0.8073249,0,0,0.8073249,57.960878,7.4036303)" />
    <linearGradient
       inkscape:collect="always"
       xlink:href="#linearGradient6558"
       id="linearGradient5145"
       gradientUnits="userSpaceOnUse"
       gradientTransform="matrix(0.7902775,0,0,0.82474,60.019977,8.0684132)"
       x1="255.15521"
       y1="32.347946"
       x2="279.8912"
       y2="32.347946" />
  </defs>
  <sodipodi:namedview
     id="base"
     pagecolor="#ffffff"
     bordercolor="#666666"
     borderopacity="1.0"
     gridtolerance="10000"
     guidetolerance="10"
     objecttolerance="10"
     inkscape:pageopacity="0.0"
     inkscape:pageshadow="2"
     inkscape:zoom="2.8"
     inkscape:cx="84.335954"
     inkscape:cy="30.863843"
     inkscape:document-units="px"
     inkscape:current-layer="layer1"
     width="300px"
     height="120px"
     showguides="true"
     inkscape:guide-bbox="true"
     inkscape:window-width="958"
     inkscape:window-height="1010"
     inkscape:window-x="0"
     inkscape:window-y="39"
     showgrid="false"
     inkscape:window-maximized="0" />
  <metadata
     id="metadata7">
    <rdf:RDF>
      <cc:Work
         rdf:about="">
        <dc:format>image/svg+xml</dc:format>
        <dc:type
           rdf:resource="http://purl.org/dc/dcmitype/StillImage" />
      </cc:Work>
    </rdf:RDF>
  </metadata>
  <g
     inkscape:label="Layer 1"
     inkscape:groupmode="layer"
     id="layer1"
     transform="translate(-15.974206,29.774647)">
    <path
       style="fill:url(#radialGradient6564);fill-opacity:1;fill-rule:evenodd;stroke:#323232;stroke-width:1.5592078;stroke-linecap:butt;stroke-linejoin:miter;stroke-miterlimit:4;stroke-dasharray:none;stroke-opacity:1"
       d="m 155.49604,-28.847899 c 0,0 -26.88819,12.85183 -48.77809,15.68871 -21.889879,2.836877 -63.635004,5.675006 -71.921899,3.6724922 -8.286883,-2.0025142 -14.23553,-4.3409282 -14.23553,-4.3409282 l 1.724166,5.8429551 -5.319906,4.6712117 0.943144,1.6671907 2.18838,0.1651421 6.719888,0.83357087 0.943152,3.00405883 3.750446,0.3381527 1.878918,6.338403 c 0,0 7.970268,0.6684334 10.315611,0.6684334 2.345343,0 7.036725,-0.3302802 7.036725,-0.3302802 l 0.154735,2.5007418 1.724173,0.3303 v 2.8389 l -3.757824,3.342212 0.94315,0.165138 v 1.16388 c 0,0 -8.445215,0.673624 -11.885069,0.173014 -3.439837,-0.500636 -4.067279,-0.503318 -4.067279,-0.503318 l -0.309486,0.330304 -0.154735,1.502028 h 0.781045 l 0.309464,6.511391 17.359706,-0.668433 -1.252612,22.530401 -0.15475,2.831046 -14.699743,-0.833594 -0.154737,-6.008099 h 3.278887 l 0.316849,-2.335624 2.969408,-0.668433 0.471578,-0.660582 -11.104022,-2.673758 -8.444063,2.500743 1.407337,1.171751 h 1.407358 l 0.154737,2.005321 2.969425,0.165139 v 5.842953 l -3.278888,0.8336 0.626294,1.329021 0.781046,0.503289 v 4.506087 h 2.033649 V 78.95199 l -3.286258,0.503298 0.471563,6.00809 2.026282,0.338154 -0.309464,13.683402 8.915623,0.165116 -1.878901,-13.518212 13.447141,-0.330306 -0.935778,7.337147 -1.252604,5.17451 13.601867,0.165135 0.154736,-13.345223 9.37983,-0.833571 -0.464207,8.508862 -0.316832,5.0015 h 7.979867 l -0.316847,-13.683377 1.097875,0.173015 0.309478,-6.511415 h -1.252607 l -0.464212,-2.673757 -0.781044,-7.675287 0.30948,-8.839143 h 1.716798 v -5.339665 l -2.188375,0.165136 0.316829,-6.299072 2.542066,-0.251638 0.117892,-2.044642 1.444194,-0.212337 1.481024,-1.124556 -8.908273,-1.832309 -8.834584,1.958127 0.862082,1.415538 0.935778,-0.07866 1.090508,-0.03933 0.198953,2.57939 2.461004,-0.117954 0.0442,5.583447 -10.595606,-0.243784 0.353686,-5.968796 0.346299,-5.426159 v -7.132672 l 0.316846,-7.510127 21.220682,-1.085231 25.251151,-1.454834 0.23576,4.797045 -0.89891,11.512905 -0.39052,10.718646 -9.298806,-0.165144 -0.0442,-7.510126 3.440982,-0.125812 0.154752,-2.123299 1.407332,-0.212331 -0.0737,-0.416778 1.40736,-0.07866 0.78102,-1.045908 -10.514548,-2.461445 -10.477712,2.24911 0.744191,1.297562 1.171566,-0.08653 v 0.589812 h 1.444189 v 2.374925 l 3.087321,0.03932 -0.03686,6.590038 h -3.12415 l -0.0442,1.502032 1.097875,0.125813 -0.117892,5.717139 2.306275,0.125844 -0.27263,22.656221 -3.050464,0.621258 0.03685,1.085232 h 1.061038 v 5.803635 h 1.753652 l -0.464211,7.92694 -0.589454,6.920326 11.104005,0.29095 -0.353672,-6.008099 -0.817875,-5.001503 -0.162103,-4.34095 9.424039,-0.165141 -0.27263,6.715867 -0.0442,7.093336 5.3199,0.4168 7.2283,-0.29096 2.26944,-0.66846 -1.25263,-3.798311 -0.30946,-5.968791 -0.58945,-4.254431 8.98931,-0.330281 -0.39053,5.213841 -0.0369,8.178556 3.59573,0.330284 3.55887,-0.07859 1.71683,-0.542607 -1.01683,-7.761759 -0.34632,-5.842965 1.52524,-0.165143 0.0369,-5.213838 0.42736,-0.08651 -0.0737,-1.124551 h -1.76102 l -0.35367,-3.837656 -0.15474,-16.648104 1.32631,-0.03933 v -5.465457 l 0.5526,0.08653 V 52.17506 l -1.95995,-0.17301 0.0442,-6.338397 3.27888,-0.290957 -0.19155,-2.131164 1.44418,-0.125813 -0.0811,-0.416797 1.91576,-0.959411 -9.73353,-1.958131 -9.88824,2.00532 0.6263,1.16388 1.52523,-0.125827 0.0811,0.503296 h 1.28944 l 0.0737,2.500744 3.20521,-0.03932 0.27263,6.133933 -11.33245,-0.08648 -1.3263,-9.216621 -1.06101,-4.883568 -0.85473,-8.760497 0.50842,-5.127346 22.59116,-1.714344 0.0737,-7.635964 1.13472,-0.29096 -0.0737,-1.163878 -0.8621,-0.503292 c -1.8e-4,0 -12.35291,1.831904 -16.26181,2.249106 -1.10128,0.117519 -1.01788,0.109805 -1.91577,0.204461 l -0.11788,-1.41553 -4.67152,-2.445701 0.059,-2.8467681 1.60629,-0.047197 0.11787,-3.9162776 c 0,0 9.5732,-0.6283202 13.1303,-1.4627045 3.55712,-0.8343964 8.5988,-1.6671747 8.5988,-1.6671747 l 2.38733,-6.464219 4.73047,-1.3762082 0.3905,-1.0852319 10.70614,-2.964715 1.21577,-0.998738 -4.06732,-8.886338 0.39055,-2.005324 2.07051,-1.085229 1.48836,-4.545414 z m -51.43803,33.8781613 -0.0589,3.232123 2.42417,0.1022207 -0.15474,3.066977 -4.75256,3.114153 -0.29471,0.896497 1.91576,0.01574 -0.0149,0.754947 -14.522905,0.70776 0.09579,-2.14689 0.66315,-1.069511 0.0442,-0.684156 0.01481,-1.47843 0.41261,-0.983014 0.154737,-0.794249 V 9.1982184 l 0.626307,-2.500768 z m -30.372097,2.7524012 -0.353684,2.1704846 1.134708,1.3368709 -0.07367,2.335622 1.053655,1.627847 -0.272628,1.91881 0.781044,1.124555 -14.81764,0.581936 -0.03685,-0.495422 1.716822,-0.212333 0.08103,-0.629113 -3.750467,-2.036793 -0.198936,-3.2557 1.79786,-0.08648 0.15475,-3.5073545 z m 21.928033,50.0623145 8.989314,0.581934 -0.30946,12.102712 1.17154,9.924395 -9.53456,-0.330301 z m -60.198955,0.503291 14.390282,0.747076 -1.252606,8.343726 v 7.014705 l 1.016816,3.916275 -14.07343,0.668439 z m 92.096289,0.07864 V 79.125 l -9.14405,0.668442 -0.31682,-10.930985 -1.01684,-10.183885 z m -69.261948,0.463974 10.632443,0.03933 0.110533,19.188189 -9.925087,0.173011 -0.508418,-6.220435 -0.03685,-6.173252 z"
       id="path4735"
       inkscape:connector-curvature="0" />
  </g>
</svg>
