<?xml version="1.0" encoding="UTF-8" standalone="no"?>
<!-- Created with Inkscape (http://www.inkscape.org/) -->

<svg
   xmlns:dc="http://purl.org/dc/elements/1.1/"
   xmlns:cc="http://creativecommons.org/ns#"
   xmlns:rdf="http://www.w3.org/1999/02/22-rdf-syntax-ns#"
   xmlns:svg="http://www.w3.org/2000/svg"
   xmlns="http://www.w3.org/2000/svg"
   xmlns:xlink="http://www.w3.org/1999/xlink"
   xmlns:sodipodi="http://sodipodi.sourceforge.net/DTD/sodipodi-0.dtd"
   xmlns:inkscape="http://www.inkscape.org/namespaces/inkscape"
   version="1.1"
   width="141.79245"
   height="158.58247"
   id="svg2985"
   xml:space="preserve"
   sodipodi:docname="sqlite.svg"
   inkscape:version="0.92.2 2405546, 2018-03-11"><sodipodi:namedview
     pagecolor="#ffffff"
     bordercolor="#666666"
     borderopacity="1"
     objecttolerance="10"
     gridtolerance="10"
     guidetolerance="10"
     inkscape:pageopacity="0"
     inkscape:pageshadow="2"
     inkscape:window-width="1920"
     inkscape:window-height="1015"
     id="namedview16"
     showgrid="false"
     inkscape:zoom="2.66657"
     inkscape:cx="62.021081"
     inkscape:cy="44.968954"
     inkscape:window-x="0"
     inkscape:window-y="39"
     inkscape:window-maximized="1"
     inkscape:current-layer="svg2985" /><title
     id="title2998">SQLite</title><metadata
     id="metadata2991"><rdf:RDF><cc:Work
         rdf:about=""><dc:format>image/svg+xml</dc:format><dc:type
           rdf:resource="http://purl.org/dc/dcmitype/StillImage" /><dc:title>SQLite</dc:title></cc:Work></rdf:RDF></metadata><defs
     id="defs2989"><linearGradient
       x1="0"
       y1="0"
       x2="1"
       y2="0"
       id="linearGradient3027"
       gradientUnits="userSpaceOnUse"
       gradientTransform="matrix(-4.02e-6,-91.8907,-91.8907,4.02e-6,85.8809,161.434)"
       spreadMethod="pad"><stop
         id="stop3029"
         style="stop-color:#97d9f6;stop-opacity:1"
         offset="0" /><stop
         id="stop3031"
         style="stop-color:#0f80cc;stop-opacity:1"
         offset="0.92024499" /><stop
         id="stop3033"
         style="stop-color:#0f80cc;stop-opacity:1"
         offset="1" /></linearGradient><linearGradient
       x1="-15.614694"
       y1="-9.1082983"
       x2="-6.7410073"
       y2="-9.1082983"
       id="linearGradient5421"
       xlink:href="#linearGradient3027"
       gradientUnits="userSpaceOnUse"
       gradientTransform="matrix(-4.02e-7,-9.18907,-9.18907,4.02e-7,8.58809,16.1434)"
       spreadMethod="pad" /><linearGradient
       x1="-15.614694"
       y1="-9.1082983"
       x2="-6.7410073"
       y2="-9.1082983"
       id="linearGradient2995"
       xlink:href="#linearGradient3027"
       gradientUnits="userSpaceOnUse"
       gradientTransform="matrix(-5.025e-7,11.486337,-11.486337,-5.025e-7,-40.839638,192.18698)"
       spreadMethod="pad" /></defs><path
     d="m 91.469029,125.99342 c -1.08349,0 -1.96448,0.32298 -2.63991,0.96865 -0.67542,0.64623 -1.01805,1.4933 -1.01805,2.53121 0,0.53789 0.0851,1.02832 0.25275,1.47771 0.16767,0.45031 0.42857,0.86746 0.77934,1.2444 0.35077,0.37727 1.05288,0.88977 2.0993,1.54135 1.284,0.78936 2.12428,1.43 2.52757,1.93022 0.40357,0.49979 0.60381,1.02357 0.60381,1.56963 0,0.73114 -0.23899,1.31476 -0.73019,1.75346 -0.49203,0.43891 -1.15004,0.65755 -1.96589,0.65755 -0.8605,0 -1.61007,-0.30547 -2.25375,-0.91208 -0.64369,-0.60749 -0.96863,-1.411 -0.97593,-2.41808 h -0.4002 v 3.6554 h 0.4002 c 0.12216,-0.34613 0.29123,-0.52321 0.51253,-0.52321 0.10644,0 0.35583,0.0739 0.74424,0.21212 0.94503,0.33861 1.72099,0.502 2.33098,0.502 1.05119,0 1.94848,-0.37075 2.69608,-1.1242 0.74649,-0.75311 1.12337,-1.66155 1.12337,-2.72211 0,-0.82238 -0.24882,-1.55405 -0.73721,-2.19183 -0.48838,-0.63854 -1.43819,-1.38128 -2.85756,-2.23425 -1.22139,-0.73898 -2.0142,-1.34084 -2.38014,-1.81003 -0.3665,-0.46851 -0.55466,-0.98677 -0.55466,-1.55549 0,-0.61513 0.22439,-1.10921 0.667,-1.47772 0.44261,-0.36879 1.02255,-0.55149 1.74824,-0.55149 0.81669,0 1.49745,0.24407 2.0361,0.73532 0.5381,0.4921 0.84927,1.17403 0.94082,2.05042 h 0.4002 v -3.16754 h -0.37211 c -0.0455,0.16149 -0.0876,0.26471 -0.12638,0.3111 -0.0376,0.0461 -0.11009,0.0707 -0.21765,0.0707 -0.12947,0 -0.36032,-0.0549 -0.68807,-0.16262 -0.7021,-0.23813 -1.34944,-0.36059 -1.94483,-0.36059 z m 13.080211,0 c -1.32023,0 -2.51886,0.31336 -3.60179,0.94036 -1.084611,0.62588 -1.943151,1.49497 -2.576731,2.60192 -0.6333,1.10685 -0.94784,2.28241 -0.94784,3.5352 0,1.6831 0.54708,3.18257 1.64995,4.49679 1.103431,1.31343 2.425631,2.13185 3.959871,2.44636 0.35077,0.18406 0.85263,0.65919 1.50952,1.42823 0.7403,0.86788 1.36658,1.49383 1.88164,1.86659 0.5145,0.37295 1.07001,0.64629 1.65697,0.82724 0.58752,0.18018 1.22279,0.26867 1.90972,0.26867 0.83186,0 1.57665,-0.14559 2.2327,-0.44543 l -0.14745,-0.36766 c -0.38082,0.13832 -0.78691,0.20504 -1.21463,0.20504 -0.5805,0 -1.16719,-0.19277 -1.75527,-0.57978 -0.58724,-0.38796 -1.32164,-1.12818 -2.19758,-2.22011 -0.41172,-0.52321 -0.69593,-0.85331 -0.85657,-0.98279 1.67859,-0.3301 3.05893,-1.14936 4.1354,-2.4605 1.07618,-1.31057 1.61483,-2.8063 1.61483,-4.48265 0,-1.99043 -0.70322,-3.66324 -2.09929,-5.02706 -1.39719,-1.36397 -3.11538,-2.05042 -5.15345,-2.05042 z m 8.16548,0 0.0211,0.43129 c 0.87903,0 1.37135,0.26076 1.48144,0.78482 0.041,0.18751 0.0598,0.53373 0.0632,1.03228 l -0.007,9.53799 c -0.007,0.71236 -0.10812,1.16719 -0.30191,1.36459 -0.19406,0.19599 -0.52208,0.31874 -0.99698,0.36767 l -0.0211,0.43129 h 8.76227 l 0.22467,-2.16355 h -0.40019 c -0.11431,0.58939 -0.37634,1.01161 -0.79338,1.25147 -0.41818,0.2416 -1.15763,0.36059 -2.22568,0.36059 h -0.82848 c -0.96104,0 -1.51711,-0.34988 -1.66399,-1.0535 -0.0304,-0.1392 -0.0408,-0.28844 -0.0422,-0.4525 l 0.0351,-9.64405 c -2.2e-4,-0.71123 0.089,-1.18783 0.27382,-1.42115 0.18677,-0.23248 0.52349,-0.36257 1.01103,-0.39595 l -0.021,-0.43129 h -4.5707 z m -8.02506,0.52321 c 1.48903,0 2.70479,0.59057 3.64393,1.78175 0.93885,1.19159 1.40421,2.82474 1.40421,4.89272 0,1.95961 -0.4721,3.52868 -1.41825,4.7089 -0.94616,1.17985 -2.20546,1.7676 -3.77031,1.7676 -1.50334,0 -2.72248,-0.60607 -3.65796,-1.82416 -0.934641,-1.21809 -1.397191,-2.79955 -1.397191,-4.74425 0,-1.99838 0.46817,-3.59808 1.411231,-4.79374 0.9425,-1.19439 2.20461,-1.78882 3.78434,-1.78882 z m 20.15041,2.05042 c -0.21372,0 -0.37661,0.0727 -0.4985,0.21918 -0.12469,0.14593 -0.16288,0.32269 -0.11935,0.53736 0.0421,0.20823 0.15867,0.39073 0.34403,0.54442 0.18423,0.15353 0.38307,0.23332 0.59679,0.23332 0.2067,0 0.36425,-0.0798 0.47743,-0.23332 0.11317,-0.15369 0.14772,-0.33619 0.10531,-0.54442 -0.0436,-0.21467 -0.15614,-0.39143 -0.32998,-0.53736 -0.17581,-0.14649 -0.36903,-0.21918 -0.57573,-0.21918 z m 5.77832,1.46358 c -0.36313,1.40678 -1.15033,2.16807 -2.35907,2.29081 l 0.014,0.40301 h 1.41123 l -0.0281,4.76547 c 0.003,0.81474 0.027,1.35718 0.0842,1.63326 0.13902,0.66097 0.56758,0.99693 1.28485,0.99693 1.03772,0 2.12625,-0.63656 3.26479,-1.90901 l -0.34403,-0.29696 c -0.82203,0.83796 -1.54884,1.25854 -2.18354,1.25854 -0.3901,0 -0.6319,-0.22592 -0.72317,-0.67169 -0.025,-0.10827 -0.0351,-0.23477 -0.0351,-0.3818 l 0.014,-5.39474 h 2.15546 l -0.021,-0.6434 h -2.12737 v -2.05042 h -0.40723 z m 8.33398,1.79588 c -1.20565,0 -2.18635,0.58939 -2.94884,1.76054 -0.75855,1.17312 -0.99333,2.47286 -0.69508,3.90287 0.17553,0.83762 0.52518,1.48679 1.06018,1.94436 0.53416,0.45737 1.21183,0.68583 2.02206,0.68583 0.75434,0 1.80469,-0.19234 2.24674,-0.57977 0.44316,-0.38721 0.85151,-1.0145 1.22868,-1.87366 l -0.30191,-0.31817 c -0.60156,1.11458 -1.81564,1.67569 -2.73119,1.67569 -1.25873,0 -2.02964,-0.69545 -2.31694,-2.07871 -0.0374,-0.17656 -0.0652,-0.36625 -0.0843,-0.56563 1.49746,-0.23875 2.63234,-0.66154 3.39819,-1.27267 0.7653,-0.61148 1.53368,-1.25964 1.39017,-1.94437 -0.0854,-0.40689 -0.29516,-0.72681 -0.61785,-0.96865 -0.3269,-0.24172 -1.1756,-0.36766 -1.64995,-0.36766 z m -13.1785,0.0495 -2.59779,0.60098 v 0.46665 l 0.89869,-0.11313 c 0.43531,0 0.69144,0.19851 0.77232,0.59391 0.0272,0.13234 0.0444,0.31817 0.0492,0.5515 l -0.0281,4.2776 c -0.007,0.59193 -0.0725,0.93603 -0.2036,1.03935 -0.13228,0.10351 -0.48109,0.15555 -1.04615,0.15555 l -0.014,0.40301 h 4.12135 l -0.007,-0.40301 c -0.57264,0 -0.94391,-0.0455 -1.10933,-0.13434 -0.16261,-0.0883 -0.27466,-0.2489 -0.32297,-0.49493 -0.0374,-0.1773 -0.0536,-0.48279 -0.0562,-0.90501 l 0.014,-6.03813 h -0.47041 z m 12.51852,0.79188 c 0.2508,0 0.49316,0.0975 0.73721,0.28989 0.24069,0.19166 0.38728,0.40479 0.43531,0.63633 0.23507,1.13724 -0.76614,1.92347 -3.01905,2.36153 -0.0643,-0.82926 0.0784,-1.58203 0.44232,-2.26254 0.36117,-0.67986 0.83158,-1.02521 1.40421,-1.02521 z"
     id="SQLite"
     style="fill:#003b57;fill-opacity:1;fill-rule:nonzero;stroke:none;stroke-width:0.22546205"
     inkscape:connector-curvature="0" /><path
     d="M 111.6315,7.0362276 H 12.1255 C 5.4565,7.0362276 0,12.493728 0,19.162478 V 128.89898 c 0,6.66837 5.4565,12.125 12.1255,12.125 H 77.66275 C 76.918884,108.41477 88.054499,45.1304 111.6315,7.0362276 Z"
     id="solid-background"
     style="fill:#0f80cc;fill-opacity:1;fill-rule:nonzero;stroke:none"
     inkscape:connector-curvature="0" /><path
     d="m 108.0165,10.573728 h -95.891 c -4.735375,0 -8.588875,3.8525 -8.588875,8.58875 V 120.89261 c 21.71725,-8.335 54.31221,-15.5269 76.849585,-15.20027 4.52893,-23.680903 17.83941,-70.090426 27.63029,-95.118612 z"
     id="gradient-background"
     style="fill:url(#linearGradient2995);fill-opacity:1;fill-rule:nonzero;stroke:none"
     inkscape:connector-curvature="0" /><path
     d="m 134.8415,3.4449776 c -6.815,-6.0775 -15.06625,-3.63625002 -23.21,3.59125 -1.20875,1.07375 -2.415,2.265 -3.615,3.5375004 -13.93125,14.77875 -26.8625,42.15375 -30.88,63.06 1.565,3.17375 2.7875,7.22375 3.5925,10.3175 0.20625,0.79375 0.3925,1.53875 0.54125,2.1725 0.35375,1.499875 0.54375,2.4725 0.54375,2.4725 0,0 -0.125,-0.472625 -0.6375,-1.95875 -0.0975,-0.285 -0.20625,-0.59625 -0.335,-0.9625 -0.055,-0.15125 -0.13125,-0.335 -0.215,-0.53125 -0.90875,-2.1125 -3.4225,-6.57125 -4.52875,-8.5125 -0.94625,2.79125 -1.7825,5.4025 -2.4825,7.765 3.19375,5.8435 5.14,15.857752 5.14,15.857752 0,0 -0.16875,-0.649002 -0.97125,-2.914122 -0.7125,-2.00338 -4.26125,-8.22113 -5.101875,-9.674755 -1.438,5.308505 -2.009375,8.892505 -1.494125,9.765125 1.000375,1.69088 1.953125,4.608382 2.78975,7.834882 1.89,7.26862 3.20375,16.11725 3.20375,16.11725 0,0 0.0425,0.58637 0.11375,1.48875 -0.2625,6.104 -0.105,12.43262 0.3675,18.15287 0.62625,7.57225 1.805,14.07713 3.3075,17.5585 l 1.02,-0.55612 c -2.20625,-6.85888 -3.1025,-15.84763 -2.71,-26.21388 0.59375,-15.84512 4.24,-34.953622 10.9775,-54.870002 11.3825,-30.065 27.175,-54.1875 41.62875,-65.7075 -13.17375,11.8975 -31.00375,50.40875 -36.34125,64.67 -5.97625,15.97 -10.21125,30.956382 -12.76375,45.314752 4.40375,-13.46087 18.6425,-19.247 18.6425,-19.247 0,0 6.98375,-8.612872 15.145,-20.917752 -4.88875,1.115 -12.91625,3.02375 -15.605,4.15375 -3.96625,1.66375 -5.035,2.23125 -5.035,2.23125 0,0 12.8475,-7.82375 23.87,-11.36625 15.15875,-23.875 31.67375,-57.7925 15.0425,-72.6287504"
     id="feather"
     style="fill:#003b57;fill-opacity:1;fill-rule:nonzero;stroke:none"
     inkscape:connector-curvature="0" /></svg>